<svg width="131" height="67" viewBox="0 0 131 67" fill="none" xmlns="http://www.w3.org/2000/svg">
    <circle cx="129.5" cy="65.5" r="1.5" transform="rotate(180 129.5 65.5)" fill="#A9B3C0"/>
    <circle cx="113.5" cy="65.5" r="1.5" transform="rotate(180 113.5 65.5)" fill="#A9B3C0"/>
    <circle cx="97.5" cy="65.5" r="1.5" transform="rotate(180 97.5 65.5)" fill="#A9B3C0"/>
    <circle cx="81.5" cy="65.5" r="1.5" transform="rotate(180 81.5 65.5)" fill="#A9B3C0"/>
    <circle cx="65.5" cy="65.5" r="1.5" transform="rotate(180 65.5 65.5)" fill="#A9B3C0"/>
    <circle cx="49.5" cy="65.5" r="1.5" transform="rotate(180 49.5 65.5)" fill="#A9B3C0"/>
    <circle cx="33.5" cy="65.5" r="1.5" transform="rotate(180 33.5 65.5)" fill="#A9B3C0"/>
    <circle cx="17.5" cy="65.5" r="1.5" transform="rotate(180 17.5 65.5)" fill="#A9B3C0"/>
    <circle cx="1.5" cy="65.5" r="1.5" transform="rotate(180 1.5 65.5)" fill="#A9B3C0"/>
    <circle cx="129.5" cy="49.5" r="1.5" transform="rotate(180 129.5 49.5)" fill="#A9B3C0"/>
    <circle cx="113.5" cy="49.5" r="1.5" transform="rotate(180 113.5 49.5)" fill="#A9B3C0"/>
    <circle cx="97.5" cy="49.5" r="1.5" transform="rotate(180 97.5 49.5)" fill="#A9B3C0"/>
    <circle cx="81.5" cy="49.5" r="1.5" transform="rotate(180 81.5 49.5)" fill="#A9B3C0"/>
    <circle cx="65.5" cy="49.5" r="1.5" transform="rotate(180 65.5 49.5)" fill="#A9B3C0"/>
    <circle cx="49.5" cy="49.5" r="1.5" transform="rotate(180 49.5 49.5)" fill="#A9B3C0"/>
    <circle cx="33.5" cy="49.5" r="1.5" transform="rotate(180 33.5 49.5)" fill="#A9B3C0"/>
    <circle cx="17.5" cy="49.5" r="1.5" transform="rotate(180 17.5 49.5)" fill="#A9B3C0"/>
    <circle cx="1.5" cy="49.5" r="1.5" transform="rotate(180 1.5 49.5)" fill="#A9B3C0"/>
    <circle cx="129.5" cy="33.5" r="1.5" transform="rotate(180 129.5 33.5)" fill="#A9B3C0"/>
    <circle cx="113.5" cy="33.5" r="1.5" transform="rotate(180 113.5 33.5)" fill="#A9B3C0"/>
    <circle cx="97.5" cy="33.5" r="1.5" transform="rotate(180 97.5 33.5)" fill="#A9B3C0"/>
    <circle cx="81.5" cy="33.5" r="1.5" transform="rotate(180 81.5 33.5)" fill="#A9B3C0"/>
    <circle cx="65.5" cy="33.5" r="1.5" transform="rotate(180 65.5 33.5)" fill="#A9B3C0"/>
    <circle cx="49.5" cy="33.5" r="1.5" transform="rotate(180 49.5 33.5)" fill="#A9B3C0"/>
    <circle cx="33.5" cy="33.5" r="1.5" transform="rotate(180 33.5 33.5)" fill="#A9B3C0"/>
    <circle cx="17.5" cy="33.5" r="1.5" transform="rotate(180 17.5 33.5)" fill="#A9B3C0"/>
    <circle cx="1.5" cy="33.5" r="1.5" transform="rotate(180 1.5 33.5)" fill="#A9B3C0"/>
    <circle cx="129.5" cy="17.5" r="1.5" transform="rotate(180 129.5 17.5)" fill="#A9B3C0"/>
    <circle cx="113.5" cy="17.5" r="1.5" transform="rotate(180 113.5 17.5)" fill="#A9B3C0"/>
    <circle cx="97.5" cy="17.5" r="1.5" transform="rotate(180 97.5 17.5)" fill="#A9B3C0"/>
    <circle cx="81.5" cy="17.5" r="1.5" transform="rotate(180 81.5 17.5)" fill="#A9B3C0"/>
    <circle cx="65.5" cy="17.5" r="1.5" transform="rotate(180 65.5 17.5)" fill="#A9B3C0"/>
    <circle cx="49.5" cy="17.5" r="1.5" transform="rotate(180 49.5 17.5)" fill="#A9B3C0"/>
    <circle cx="33.5" cy="17.5" r="1.5" transform="rotate(180 33.5 17.5)" fill="#A9B3C0"/>
    <circle cx="17.5" cy="17.5" r="1.5" transform="rotate(180 17.5 17.5)" fill="#A9B3C0"/>
    <circle cx="1.5" cy="17.5" r="1.5" transform="rotate(180 1.5 17.5)" fill="#A9B3C0"/>
    <circle cx="129.5" cy="1.5" r="1.5" transform="rotate(180 129.5 1.5)" fill="#A9B3C0"/>
    <circle cx="113.5" cy="1.5" r="1.5" transform="rotate(180 113.5 1.5)" fill="#A9B3C0"/>
    <circle cx="97.5" cy="1.5" r="1.5" transform="rotate(180 97.5 1.5)" fill="#A9B3C0"/>
    <circle cx="81.5" cy="1.5" r="1.5" transform="rotate(180 81.5 1.5)" fill="#A9B3C0"/>
    <circle cx="65.5" cy="1.5" r="1.5" transform="rotate(180 65.5 1.5)" fill="#A9B3C0"/>
    <circle cx="49.5" cy="1.5" r="1.5" transform="rotate(180 49.5 1.5)" fill="#A9B3C0"/>
    <circle cx="33.5" cy="1.5" r="1.5" transform="rotate(180 33.5 1.5)" fill="#A9B3C0"/>
    <circle cx="17.5" cy="1.5" r="1.5" transform="rotate(180 17.5 1.5)" fill="#A9B3C0"/>
    <circle cx="1.5" cy="1.5" r="1.5" transform="rotate(180 1.5 1.5)" fill="#A9B3C0"/>
</svg>
