<svg width="213" height="18" viewBox="0 0 213 18" fill="none" xmlns="http://www.w3.org/2000/svg">
    <path d="M48.0549 16.7579H46.6281L53.4424 0.0255456L60.5421 16.7579H57.2301L55.5005 12.3896H49.7585L48.0549 16.7579ZM52.6641 5.35607L50.2341 11.3338H55.1287L52.6641 5.35607ZM3.73578 5.73074C4.15951 6.14799 4.96375 6.64187 6.09659 7.13575C7.95583 7.90212 9.18379 8.69404 9.75454 9.38377C10.3339 10.0735 10.6107 11.0102 10.6107 12.1257C10.6107 13.6073 10.0313 14.7909 9.02813 15.7787C7.94718 16.6898 6.66733 17.1837 5.09346 17.1837C3.94332 17.1837 3.00938 16.9623 2.16191 16.5451C1.38362 16.0427 0.648573 15.404 0 14.4929L1.27985 13.6499C1.70358 14.3396 2.13597 14.9101 2.70671 15.2763C3.2861 15.6254 3.93468 15.8468 4.56595 15.8468C5.42207 15.8468 6.14847 15.5743 6.71922 15.0038C7.29861 14.4333 7.57533 13.7436 7.57533 12.9091C7.57533 11.5041 6.34737 10.3204 3.83955 9.33268H3.76172C2.42999 8.73661 1.50469 8.17461 0.925297 7.48487C0.354553 6.78663 0.0778288 5.92659 0.0778288 4.88773C0.0778288 3.48272 0.579392 2.27356 1.50469 1.35392C2.42999 0.442791 3.65795 0.0170304 5.24047 0.0170304C6.39061 0.0170304 7.39373 0.289517 8.17202 0.7834C9.02814 1.35392 9.67671 2.04365 10.1004 2.95478L9.01949 3.67006C8.74276 2.90369 8.37091 2.33317 7.79152 1.91592C7.29861 1.50719 6.65003 1.2858 5.87175 1.2858C5.01563 1.2858 4.36706 1.50719 3.86549 2.05217C3.36393 2.54605 3.08721 3.18469 3.08721 4.0277C3.08721 4.66634 3.31205 5.23686 3.73578 5.73074ZM24.5247 14.2885C25.0263 13.5222 25.303 12.1938 25.303 10.2864H25.3808V0.366154H26.8855V10.8314C26.8855 12.9261 26.4618 14.561 25.4587 15.6169C24.4555 16.6813 22.9508 17.2433 21.0224 17.2433C20.1663 17.2433 19.2929 17.0219 18.5146 16.7494C17.6585 16.4769 17.0099 16.0597 16.5083 15.4892C16.0068 14.9187 15.6522 14.3567 15.4274 13.6584C15.2025 12.9687 15.0728 12.032 15.0728 10.8484V0.442791H18.16V10.2949C18.16 12.1938 18.3849 13.5307 18.9383 14.297C19.5177 15.0634 20.443 15.4296 21.7488 15.4296C23.02 15.4296 23.954 15.0804 24.5247 14.2885ZM43.1863 9.57962C42.6069 8.88988 41.7595 8.31937 40.6007 8.02133C41.526 7.79994 42.2524 7.38269 42.7539 6.76108C43.2555 6.12244 43.4803 5.42419 43.4803 4.51306C43.4803 3.7467 43.2555 3.03142 42.9009 2.41832C42.5464 1.77968 41.9756 1.2858 41.3184 0.936674C40.9639 0.715278 40.3931 0.58755 39.7359 0.519428C39.0095 0.442791 38.1534 0.374669 37.1503 0.374669H32.2125V16.7665H38.1101C40.1164 16.7665 41.6211 16.4173 42.6242 15.7021C43.6273 15.0123 44.0511 13.8713 44.0511 12.3982C44.1116 11.2827 43.8435 10.3715 43.1863 9.57962ZM35.3602 1.43056H36.5882C37.9458 1.43056 38.949 1.70304 39.5975 2.19693C40.2461 2.69081 40.6007 3.45718 40.6007 4.51306C40.6007 5.64559 40.3239 6.41196 39.7445 6.90584C39.1652 7.39972 38.2399 7.67221 36.8822 7.67221H35.3775V1.43056H35.3602ZM40.1769 14.9357C39.5975 15.4296 38.5944 15.7021 37.3146 15.7021H35.3602V8.66849H36.8649C38.2917 8.66849 39.3727 9.01761 40.0991 9.65625C40.8255 10.2949 41.1801 11.2827 41.1801 12.6195C41.1022 13.6754 40.8342 14.4418 40.1769 14.9357ZM74.534 7.97024C75.2604 7.28051 75.6841 6.34384 75.6841 5.16022C75.6841 3.60194 75.1826 2.41832 74.1016 1.58383C73.0207 0.817461 71.4468 0.400215 69.3627 0.400215H63.9233V16.792H67.0106V1.43056H68.2904C69.7173 1.43056 70.7982 1.70304 71.5246 2.34168C72.251 2.9122 72.6056 3.82333 72.6056 5.08358C72.6056 6.21611 72.251 6.98248 71.5246 7.553C70.7982 8.04688 69.5962 8.396 67.7888 8.54076L72.2251 16.8346H75.6582L71.222 9.15386C72.7353 9.03464 73.8076 8.59185 74.534 7.97024ZM90.463 16.7579H80.129V0.366154H90.463V1.54977H83.2162V7.59557H89.8836V8.77919H83.2162V15.4721H90.463V16.7579ZM100.572 11.5551L96.1358 0.374669H92.9016L99.8024 17.1837L106.401 0.374669H104.818L100.572 11.5551ZM108.121 16.7579H106.617L113.492 0.0255456L120.591 16.7579H117.279L115.55 12.3896H109.808L108.121 16.7579ZM112.713 5.35607L110.283 11.3338H115.178L112.713 5.35607ZM145.263 12.2704C144.684 13.454 143.983 14.3226 143.11 14.9357C142.254 15.5743 141.251 15.8468 140.1 15.8468C138.449 15.8468 137.091 15.2082 136.166 13.9479C135.24 12.6877 134.808 10.9335 134.808 8.66849C134.808 6.35235 135.31 4.44494 136.235 3.11657C137.238 1.77968 138.544 1.0644 140.17 1.0644C141.173 1.0644 142.029 1.33689 142.824 1.83077C143.603 2.32465 144.251 3.09102 144.753 4.07879L145.756 3.38906C145.107 2.25653 144.251 1.41353 143.17 0.843006C142.176 0.272487 140.948 0 139.521 0C137.212 0 135.284 0.843006 133.701 2.46941C132.119 4.09582 131.392 6.12244 131.392 8.59185C131.392 11.1379 132.171 13.156 133.701 14.7909C135.206 16.4173 137.134 17.1837 139.443 17.1837C140.948 17.1837 142.306 16.8346 143.456 16.0512C144.606 15.2848 145.54 14.2204 146.188 12.892L145.263 12.2704ZM153.236 15.5062H160.405V16.7665H150.071V0.366154H153.228V15.5062H153.236ZM166.735 0.366154H163.648V16.7579H166.735V0.366154ZM175.106 0.366154L183.71 11.6999V0.366154H185.215V16.7579H183.71L173.731 3.67857V16.7579H172.226V0.366154H175.106ZM193.923 0.366154H190.836V16.7579H193.923V0.366154ZM209.921 14.9357C210.778 14.297 211.504 13.454 212.075 12.2704L213 12.9091C212.351 14.246 211.417 15.3018 210.267 16.0682C209.117 16.8346 207.76 17.2007 206.255 17.2007C203.946 17.2007 202.017 16.4344 200.513 14.808C199.008 13.1816 198.204 11.1549 198.204 8.60888C198.204 6.13947 198.93 4.11285 200.513 2.48644C202.095 0.860037 204.024 0.0170304 206.333 0.0170304C207.76 0.0170304 208.987 0.289517 209.991 0.860037C211.072 1.43056 211.919 2.26505 212.576 3.40609L211.573 4.09582C211.072 3.10805 210.423 2.34168 209.645 1.8478C208.866 1.35392 207.993 1.08143 206.99 1.08143C205.338 1.08143 204.058 1.77116 203.055 3.1336C202.13 4.47049 201.628 6.36938 201.628 8.68552C201.628 10.9335 202.052 12.6877 202.986 13.965C203.911 15.2252 205.295 15.8638 206.921 15.8638C208.036 15.8468 209.039 15.5488 209.921 14.9357Z" fill="#25303B"/>
    <path d="M126.35 16.7579C127.085 16.7579 127.682 16.1704 127.682 15.4466C127.682 14.7228 127.085 14.1353 126.35 14.1353C125.615 14.1353 125.019 14.7228 125.019 15.4466C125.027 16.1789 125.615 16.7579 126.35 16.7579Z" fill="#25303B"/>
</svg>
