<svg width="67" height="131" viewBox="0 0 67 131" fill="none" xmlns="http://www.w3.org/2000/svg">
    <circle cx="1.5" cy="129.5" r="1.5" transform="rotate(-90 1.5 129.5)" fill="#A9B3C0"/>
    <circle cx="1.5" cy="113.5" r="1.5" transform="rotate(-90 1.5 113.5)" fill="#A9B3C0"/>
    <circle cx="1.5" cy="97.5" r="1.5" transform="rotate(-90 1.5 97.5)" fill="#A9B3C0"/>
    <circle cx="1.5" cy="81.5" r="1.5" transform="rotate(-90 1.5 81.5)" fill="#A9B3C0"/>
    <circle cx="1.5" cy="65.5" r="1.5" transform="rotate(-90 1.5 65.5)" fill="#A9B3C0"/>
    <circle cx="1.5" cy="49.5" r="1.5" transform="rotate(-90 1.5 49.5)" fill="#A9B3C0"/>
    <circle cx="1.5" cy="33.5" r="1.5" transform="rotate(-90 1.5 33.5)" fill="#A9B3C0"/>
    <circle cx="1.5" cy="17.5" r="1.5" transform="rotate(-90 1.5 17.5)" fill="#A9B3C0"/>
    <circle cx="1.5" cy="1.5" r="1.5" transform="rotate(-90 1.5 1.5)" fill="#A9B3C0"/>
    <circle cx="17.5" cy="129.5" r="1.5" transform="rotate(-90 17.5 129.5)" fill="#A9B3C0"/>
    <circle cx="17.5" cy="113.5" r="1.5" transform="rotate(-90 17.5 113.5)" fill="#A9B3C0"/>
    <circle cx="17.5" cy="97.5" r="1.5" transform="rotate(-90 17.5 97.5)" fill="#A9B3C0"/>
    <circle cx="17.5" cy="81.5" r="1.5" transform="rotate(-90 17.5 81.5)" fill="#A9B3C0"/>
    <circle cx="17.5" cy="65.5" r="1.5" transform="rotate(-90 17.5 65.5)" fill="#A9B3C0"/>
    <circle cx="17.5" cy="49.5" r="1.5" transform="rotate(-90 17.5 49.5)" fill="#A9B3C0"/>
    <circle cx="17.5" cy="33.5" r="1.5" transform="rotate(-90 17.5 33.5)" fill="#A9B3C0"/>
    <circle cx="17.5" cy="17.5" r="1.5" transform="rotate(-90 17.5 17.5)" fill="#A9B3C0"/>
    <circle cx="17.5" cy="1.5" r="1.5" transform="rotate(-90 17.5 1.5)" fill="#A9B3C0"/>
    <circle cx="33.5" cy="129.5" r="1.5" transform="rotate(-90 33.5 129.5)" fill="#A9B3C0"/>
    <circle cx="33.5" cy="113.5" r="1.5" transform="rotate(-90 33.5 113.5)" fill="#A9B3C0"/>
    <circle cx="33.5" cy="97.5" r="1.5" transform="rotate(-90 33.5 97.5)" fill="#A9B3C0"/>
    <circle cx="33.5" cy="81.5" r="1.5" transform="rotate(-90 33.5 81.5)" fill="#A9B3C0"/>
    <circle cx="33.5" cy="65.5" r="1.5" transform="rotate(-90 33.5 65.5)" fill="#A9B3C0"/>
    <circle cx="33.5" cy="49.5" r="1.5" transform="rotate(-90 33.5 49.5)" fill="#A9B3C0"/>
    <circle cx="33.5" cy="33.5" r="1.5" transform="rotate(-90 33.5 33.5)" fill="#A9B3C0"/>
    <circle cx="33.5" cy="17.5" r="1.5" transform="rotate(-90 33.5 17.5)" fill="#A9B3C0"/>
    <circle cx="33.5" cy="1.5" r="1.5" transform="rotate(-90 33.5 1.5)" fill="#A9B3C0"/>
    <circle cx="49.5" cy="129.5" r="1.5" transform="rotate(-90 49.5 129.5)" fill="#A9B3C0"/>
    <circle cx="49.5" cy="113.5" r="1.5" transform="rotate(-90 49.5 113.5)" fill="#A9B3C0"/>
    <circle cx="49.5" cy="97.5" r="1.5" transform="rotate(-90 49.5 97.5)" fill="#A9B3C0"/>
    <circle cx="49.5" cy="81.5" r="1.5" transform="rotate(-90 49.5 81.5)" fill="#A9B3C0"/>
    <circle cx="49.5" cy="65.5" r="1.5" transform="rotate(-90 49.5 65.5)" fill="#A9B3C0"/>
    <circle cx="49.5" cy="49.5" r="1.5" transform="rotate(-90 49.5 49.5)" fill="#A9B3C0"/>
    <circle cx="49.5" cy="33.5" r="1.5" transform="rotate(-90 49.5 33.5)" fill="#A9B3C0"/>
    <circle cx="49.5" cy="17.5" r="1.5" transform="rotate(-90 49.5 17.5)" fill="#A9B3C0"/>
    <circle cx="49.5" cy="1.5" r="1.5" transform="rotate(-90 49.5 1.5)" fill="#A9B3C0"/>
    <circle cx="65.5" cy="129.5" r="1.5" transform="rotate(-90 65.5 129.5)" fill="#A9B3C0"/>
    <circle cx="65.5" cy="113.5" r="1.5" transform="rotate(-90 65.5 113.5)" fill="#A9B3C0"/>
    <circle cx="65.5" cy="97.5" r="1.5" transform="rotate(-90 65.5 97.5)" fill="#A9B3C0"/>
    <circle cx="65.5" cy="81.5" r="1.5" transform="rotate(-90 65.5 81.5)" fill="#A9B3C0"/>
    <circle cx="65.5" cy="65.5" r="1.5" transform="rotate(-90 65.5 65.5)" fill="#A9B3C0"/>
    <circle cx="65.5" cy="49.5" r="1.5" transform="rotate(-90 65.5 49.5)" fill="#A9B3C0"/>
    <circle cx="65.5" cy="33.5" r="1.5" transform="rotate(-90 65.5 33.5)" fill="#A9B3C0"/>
    <circle cx="65.5" cy="17.5" r="1.5" transform="rotate(-90 65.5 17.5)" fill="#A9B3C0"/>
    <circle cx="65.5" cy="1.5" r="1.5" transform="rotate(-90 65.5 1.5)" fill="#A9B3C0"/>
</svg>
