<svg width="1163" height="1163" viewBox="0 0 1163 1163" fill="none" xmlns="http://www.w3.org/2000/svg">
<circle cx="581.826" cy="581.826" r="411.717" transform="rotate(-39.6919 581.826 581.826)" stroke="url(#paint0_linear_1603_912)" stroke-width="2"/>
<circle cx="581.826" cy="581.826" r="517.096" transform="rotate(-83.8004 581.826 581.826)" stroke="url(#paint1_linear_1603_912)" stroke-width="2"/>
<g filter="url(#filter0_f_1603_912)">
<path d="M249.505 292.475L251.896 334.369L292.478 323.697L253.373 338.916L276.064 374.214L249.505 341.726L222.947 374.214L245.638 338.916L206.533 323.697L247.115 334.369L249.505 292.475Z" fill="white"/>
</g>
<g filter="url(#filter1_f_1603_912)">
<path d="M209.609 268.556L250.256 330.517L302.898 278.361L256.53 336.166L322.401 370.114L253.096 343.879L241.165 417.016L244.7 342.996L171.456 354.249L242.945 334.738L209.609 268.556Z" fill="white"/>
</g>
<circle cx="249.506" cy="337.659" r="6" fill="white"/>
<g filter="url(#filter2_f_1603_912)">
<path d="M718.505 926.475L720.896 968.369L761.478 957.697L722.373 972.916L745.064 1008.21L718.505 975.726L691.947 1008.21L714.638 972.916L675.533 957.697L716.115 968.369L718.505 926.475Z" fill="white"/>
</g>
<g filter="url(#filter3_f_1603_912)">
<path d="M678.609 902.556L719.256 964.517L771.898 912.361L725.53 970.166L791.401 1004.11L722.096 977.879L710.165 1051.02L713.7 976.996L640.456 988.249L711.945 968.738L678.609 902.556Z" fill="white"/>
</g>
<circle cx="718.506" cy="971.659" r="6" fill="white"/>
<g filter="url(#filter4_f_1603_912)">
<path d="M1024.51 264.475L1026.9 306.369L1067.48 295.697L1028.37 310.916L1051.06 346.214L1024.51 313.726L997.947 346.214L1020.64 310.916L981.533 295.697L1022.12 306.369L1024.51 264.475Z" fill="white"/>
</g>
<g filter="url(#filter5_f_1603_912)">
<path d="M984.609 240.556L1025.26 302.517L1077.9 250.361L1031.53 308.166L1097.4 342.114L1028.1 315.879L1016.17 389.016L1019.7 314.996L946.456 326.249L1017.95 306.738L984.609 240.556Z" fill="white"/>
</g>
<circle cx="1024.51" cy="309.659" r="6" fill="white"/>
<defs>
<filter id="filter0_f_1603_912" x="202.533" y="288.475" width="93.9453" height="89.739" filterUnits="userSpaceOnUse" color-interpolation-filters="sRGB">
<feFlood flood-opacity="0" result="BackgroundImageFix"/>
<feBlend mode="normal" in="SourceGraphic" in2="BackgroundImageFix" result="shape"/>
<feGaussianBlur stdDeviation="2" result="effect1_foregroundBlur_1603_912"/>
</filter>
<filter id="filter1_f_1603_912" x="158.456" y="255.556" width="176.944" height="174.459" filterUnits="userSpaceOnUse" color-interpolation-filters="sRGB">
<feFlood flood-opacity="0" result="BackgroundImageFix"/>
<feBlend mode="normal" in="SourceGraphic" in2="BackgroundImageFix" result="shape"/>
<feGaussianBlur stdDeviation="6.5" result="effect1_foregroundBlur_1603_912"/>
</filter>
<filter id="filter2_f_1603_912" x="671.533" y="922.475" width="93.9453" height="89.739" filterUnits="userSpaceOnUse" color-interpolation-filters="sRGB">
<feFlood flood-opacity="0" result="BackgroundImageFix"/>
<feBlend mode="normal" in="SourceGraphic" in2="BackgroundImageFix" result="shape"/>
<feGaussianBlur stdDeviation="2" result="effect1_foregroundBlur_1603_912"/>
</filter>
<filter id="filter3_f_1603_912" x="627.456" y="889.556" width="176.944" height="174.459" filterUnits="userSpaceOnUse" color-interpolation-filters="sRGB">
<feFlood flood-opacity="0" result="BackgroundImageFix"/>
<feBlend mode="normal" in="SourceGraphic" in2="BackgroundImageFix" result="shape"/>
<feGaussianBlur stdDeviation="6.5" result="effect1_foregroundBlur_1603_912"/>
</filter>
<filter id="filter4_f_1603_912" x="977.533" y="260.475" width="93.9453" height="89.739" filterUnits="userSpaceOnUse" color-interpolation-filters="sRGB">
<feFlood flood-opacity="0" result="BackgroundImageFix"/>
<feBlend mode="normal" in="SourceGraphic" in2="BackgroundImageFix" result="shape"/>
<feGaussianBlur stdDeviation="2" result="effect1_foregroundBlur_1603_912"/>
</filter>
<filter id="filter5_f_1603_912" x="933.456" y="227.556" width="176.944" height="174.459" filterUnits="userSpaceOnUse" color-interpolation-filters="sRGB">
<feFlood flood-opacity="0" result="BackgroundImageFix"/>
<feBlend mode="normal" in="SourceGraphic" in2="BackgroundImageFix" result="shape"/>
<feGaussianBlur stdDeviation="6.5" result="effect1_foregroundBlur_1603_912"/>
</filter>
<linearGradient id="paint0_linear_1603_912" x1="581.826" y1="169.109" x2="581.826" y2="994.543" gradientUnits="userSpaceOnUse">
<stop stop-color="white"/>
<stop offset="0.489583" stop-color="white" stop-opacity="0"/>
<stop offset="1" stop-color="white"/>
</linearGradient>
<linearGradient id="paint1_linear_1603_912" x1="581.826" y1="63.73" x2="581.826" y2="1099.92" gradientUnits="userSpaceOnUse">
<stop stop-color="white"/>
<stop offset="0.489583" stop-color="white" stop-opacity="0"/>
<stop offset="1" stop-color="white"/>
</linearGradient>
</defs>
</svg>
